<svg width="37" height="29" viewBox="0 0 37 29" fill="none" xmlns="http://www.w3.org/2000/svg">
<path d="M3.667 28.33C2.65857 28.33 1.79561 27.9835 1.0781 27.2906C0.359366 26.5966 0 25.7626 0 24.7887V3.54125C0 2.56741 0.359366 1.73403 1.0781 1.04113C1.79561 0.347042 2.65857 0 3.667 0H33.003C34.0114 0 34.875 0.347042 35.5937 1.04113C36.3112 1.73403 36.67 2.56741 36.67 3.54125V24.7887C36.67 25.7626 36.3112 26.5966 35.5937 27.2906C34.875 27.9835 34.0114 28.33 33.003 28.33H3.667ZM33.003 7.0825L19.2976 15.3602C19.1448 15.4487 18.9841 15.5148 18.8154 15.5585C18.6479 15.6033 18.4878 15.6258 18.335 15.6258C18.1822 15.6258 18.0221 15.6033 17.8546 15.5585C17.6859 15.5148 17.5252 15.4487 17.3724 15.3602L3.667 7.0825V24.7887H33.003V7.0825ZM18.335 12.3944L33.003 3.54125H3.667L18.335 12.3944ZM3.667 7.52516V4.91348V4.95775V4.93473V7.52516Z" fill="#40916C"/>
</svg>
