<svg width="40" height="40" viewBox="0 0 40 40" fill="none" xmlns="http://www.w3.org/2000/svg">
<path d="M8.33301 35C6.94412 35 5.76356 34.5138 4.79134 33.5416C3.81912 32.5694 3.33301 31.3888 3.33301 30V18.3333C3.33301 16.9444 3.81912 15.7638 4.79134 14.7916C5.76356 13.8194 6.94412 13.3333 8.33301 13.3333C9.08301 13.3333 9.77079 13.4861 10.3963 13.7916C11.0208 14.0972 11.5691 14.5 12.0413 15H13.333V6.66663H29.9997V15H31.6663C33.0552 15 34.2358 15.4861 35.208 16.4583C36.1802 17.4305 36.6663 18.6111 36.6663 20V33.3333H12.0413C11.5691 33.8333 11.0208 34.2361 10.3963 34.5416C9.77079 34.8472 9.08301 35 8.33301 35ZM8.33301 31.6666C8.80523 31.6666 9.20134 31.5066 9.52134 31.1866C9.84023 30.8677 9.99967 30.4722 9.99967 30V18.3333C9.99967 17.8611 9.84023 17.465 9.52134 17.145C9.20134 16.8261 8.80523 16.6666 8.33301 16.6666C7.86079 16.6666 7.46467 16.8261 7.14468 17.145C6.82579 17.465 6.66634 17.8611 6.66634 18.3333V30C6.66634 30.4722 6.82579 30.8677 7.14468 31.1866C7.46467 31.5066 7.86079 31.6666 8.33301 31.6666ZM16.6663 15H26.6663V9.99996H16.6663V15ZM13.333 30H33.333V20C33.333 19.5277 33.173 19.1316 32.853 18.8116C32.5341 18.4927 32.1386 18.3333 31.6663 18.3333H13.333V30ZM24.9997 23.3333C25.4719 23.3333 25.868 23.1733 26.188 22.8533C26.5069 22.5344 26.6663 22.1388 26.6663 21.6666C26.6663 21.1944 26.5069 20.7983 26.188 20.4783C25.868 20.1594 25.4719 20 24.9997 20C24.5275 20 24.1319 20.1594 23.813 20.4783C23.493 20.7983 23.333 21.1944 23.333 21.6666C23.333 22.1388 23.493 22.5344 23.813 22.8533C24.1319 23.1733 24.5275 23.3333 24.9997 23.3333ZM29.9997 23.3333C30.4719 23.3333 30.8675 23.1733 31.1863 22.8533C31.5063 22.5344 31.6663 22.1388 31.6663 21.6666C31.6663 21.1944 31.5063 20.7983 31.1863 20.4783C30.8675 20.1594 30.4719 20 29.9997 20C29.5275 20 29.1319 20.1594 28.813 20.4783C28.493 20.7983 28.333 21.1944 28.333 21.6666C28.333 22.1388 28.493 22.5344 28.813 22.8533C29.1319 23.1733 29.5275 23.3333 29.9997 23.3333ZM24.9997 28.3333C25.4719 28.3333 25.868 28.1733 26.188 27.8533C26.5069 27.5344 26.6663 27.1388 26.6663 26.6666C26.6663 26.1944 26.5069 25.7983 26.188 25.4783C25.868 25.1594 25.4719 25 24.9997 25C24.5275 25 24.1319 25.1594 23.813 25.4783C23.493 25.7983 23.333 26.1944 23.333 26.6666C23.333 27.1388 23.493 27.5344 23.813 27.8533C24.1319 28.1733 24.5275 28.3333 24.9997 28.3333ZM29.9997 28.3333C30.4719 28.3333 30.8675 28.1733 31.1863 27.8533C31.5063 27.5344 31.6663 27.1388 31.6663 26.6666C31.6663 26.1944 31.5063 25.7983 31.1863 25.4783C30.8675 25.1594 30.4719 25 29.9997 25C29.5275 25 29.1319 25.1594 28.813 25.4783C28.493 25.7983 28.333 26.1944 28.333 26.6666C28.333 27.1388 28.493 27.5344 28.813 27.8533C29.1319 28.1733 29.5275 28.3333 29.9997 28.3333ZM14.9997 28.3333H21.6663V20H14.9997V28.3333Z" fill="#40916C"/>
</svg>
